<?xml version="1.0" encoding="UTF-8"?>
<svg version="1.1" xmlns="http://www.w3.org/2000/svg" width="512" height="512">
<path d="M0 0 C0.66335358 0.00248749 1.32670715 0.00497498 2.01016235 0.00753784 C34.89900276 0.19824804 62.76743072 13.1337813 85.87109375 36.38330078 C113.14764944 64.83629883 116.3125 97.69188157 116.3125 136.3125 C141.0625 136.3125 165.8125 136.3125 191.3125 136.3125 C193.24365801 140.17481603 193.66075235 142.09964787 193.98026466 146.2857542 C194.07829844 147.51635655 194.17633222 148.7469589 194.27733672 150.01485223 C194.37772177 151.38266758 194.4779483 152.75049458 194.57803345 154.11833191 C194.69041379 155.56990325 194.80353024 157.02141775 194.91732061 158.47287923 C195.22824533 162.46662279 195.52861854 166.46110114 195.82729197 170.45577705 C196.15113361 174.7626041 196.4846621 179.06868218 196.81697083 183.37486267 C197.46682872 191.81640585 198.10760093 200.25861543 198.74523641 208.7010897 C199.48865608 218.54046811 200.24050237 228.37919711 200.99257033 238.2179176 C202.33517081 255.7865867 203.66929431 273.35588958 204.99902344 290.92553711 C206.28767839 307.95246182 207.58345064 324.9788262 208.88671875 342.00463867 C210.30619619 360.54871232 211.72155707 379.09309179 213.12995088 397.6380108 C213.2804523 399.61964424 213.43095628 401.60127749 213.58146286 403.58291054 C213.65550386 404.55783352 213.72954486 405.53275649 213.80582953 406.53722259 C214.32609471 413.38431821 214.84918928 420.23119428 215.37334061 427.07799339 C216.01337761 435.43999084 216.6486718 443.80233335 217.27811076 452.16513547 C217.59896741 456.42665716 217.92179419 460.68800311 218.25028038 464.94894409 C218.55185804 468.86167772 218.84732836 472.77482632 219.13824396 476.68836669 C219.24363408 478.09247726 219.35111223 479.49643331 219.46107729 480.900193 C220.05580436 488.50945168 220.40896153 496.08536532 220.43822289 503.7160387 C220.44509682 504.83027068 220.44509682 504.83027068 220.45210961 505.96701239 C220.43600763 511.18899237 220.43600763 511.18899237 219.3125 512.3125 C216.98259915 512.41212458 214.68230826 512.44613779 212.35183716 512.43834114 C211.24129428 512.4405213 211.24129428 512.4405213 210.10831618 512.44274551 C207.59579105 512.44643189 205.0833256 512.44290697 202.57080078 512.43948364 C200.76398754 512.44063442 198.95717453 512.44222165 197.15036201 512.44421089 C192.16065636 512.44841016 187.17096967 512.44631084 182.18126392 512.44322467 C176.80970438 512.4409732 171.43814823 512.44444891 166.06658936 512.44720459 C155.53394233 512.45166401 145.00130242 512.45068506 134.46865511 512.44779195 C125.91271691 512.44553859 117.3567807 512.4452251 108.80084229 512.44631577 C107.58565827 512.446469 106.37047426 512.44662223 105.1184665 512.44678011 C102.65026776 512.44709982 100.18206902 512.44742403 97.71387029 512.4477527 C74.5396954 512.450608 51.36552446 512.44731969 28.19135022 512.44195233 C8.28316379 512.43748425 -11.6250168 512.43826017 -31.53320312 512.44287109 C-54.62135222 512.44821598 -77.70949785 512.4503333 -100.79764748 512.44725883 C-103.25704575 512.44694026 -105.71644401 512.44662589 -108.17584229 512.44631577 C-109.38608688 512.44616149 -110.59633148 512.44600721 -111.84325016 512.44584826 C-120.39434128 512.44498285 -128.94543021 512.4464465 -137.496521 512.44879532 C-147.90964359 512.45159257 -158.32275865 512.45085664 -168.73588037 512.44551457 C-174.05436525 512.44287654 -179.37283753 512.4418742 -184.69132233 512.44516373 C-189.55178775 512.44812462 -194.41222878 512.44653737 -199.27269197 512.44118617 C-201.03915516 512.4400611 -202.80562037 512.44065515 -204.57208228 512.44306196 C-206.95703066 512.44606436 -209.34189341 512.44302314 -211.72683716 512.43834114 C-212.77652282 512.44185289 -212.77652282 512.44185289 -213.84741426 512.44543558 C-218.57334966 512.42665034 -218.57334966 512.42665034 -219.6875 511.3125 C-219.7910225 508.76909541 -219.82891431 506.25954601 -219.81322289 503.7160387 C-219.80880622 502.56427648 -219.80880622 502.56427648 -219.80430033 501.38924633 C-219.74058678 493.85452366 -219.26426637 486.36624348 -218.67593384 478.85588074 C-218.56545104 477.38392056 -218.45552617 475.91191843 -218.34610116 474.43987924 C-218.04785383 470.44940384 -217.74173798 466.45956762 -217.43415737 462.46980226 C-217.10228528 458.14654392 -216.77787171 453.82272456 -216.45243835 449.49897766 C-215.81559051 441.05393216 -215.17179543 432.60943049 -214.52534749 424.16511496 C-214.00023881 417.30454251 -213.47751587 410.44379218 -212.95646286 403.58291054 C-212.88210555 402.60389088 -212.80774824 401.62487122 -212.73113769 400.6161843 C-212.58006701 398.62705554 -212.42899949 396.63792654 -212.27793507 394.64879731 C-210.86449042 376.04165832 -209.44287203 357.43515062 -208.01862185 338.82883606 C-206.71539195 321.80039434 -205.42191124 304.7712286 -204.13305958 287.7416931 C-202.8083213 270.23901135 -201.47738888 252.73681113 -200.13956678 235.23512441 C-199.38905293 225.41541846 -198.64095439 215.59554312 -197.89925003 205.77516747 C-197.26862018 197.42650031 -196.63210668 189.07830743 -195.98791839 180.73067506 C-195.65937651 176.47123423 -195.33357336 172.21163 -195.01504707 167.95142746 C-194.72364204 164.0549408 -194.42451761 160.15912792 -194.11912839 156.26371304 C-194.0098236 154.85186737 -193.90338476 153.43979641 -193.80004664 152.02750149 C-193.65953992 150.11300087 -193.50770723 148.19934142 -193.35526466 146.2857542 C-193.27400451 145.22112034 -193.19274436 144.15648649 -193.10902178 143.059591 C-192.6875 140.3125 -192.6875 140.3125 -190.6875 136.3125 C-165.9375 136.3125 -141.1875 136.3125 -115.6875 136.3125 C-115.6875 124.7625 -115.6875 113.2125 -115.6875 101.3125 C-112.17969984 82.60423249 -112.17969984 82.60423249 -109.5 75.6875 C-109.19884277 74.894646 -108.89768555 74.10179199 -108.58740234 73.28491211 C-96.94420044 43.62674064 -73.66431387 20.96434702 -44.77294922 8.16455078 C-38.60439293 5.6442673 -32.17537055 3.80713729 -25.6875 2.3125 C-24.88159424 2.12631104 -24.07568848 1.94012207 -23.24536133 1.74829102 C-15.49568654 0.14355677 -7.89579161 -0.03539819 0 0 Z M-55.6875 54.3125 C-56.44675781 54.97765625 -57.20601562 55.6428125 -57.98828125 56.328125 C-74.58099524 71.80319504 -82.86771517 93.97336348 -83.6875 116.3125 C-83.6875 122.9125 -83.6875 129.5125 -83.6875 136.3125 C-28.2475 136.3125 27.1925 136.3125 84.3125 136.3125 C84.3125 106.88019554 82.4851915 82.94990005 62.3125 60.3125 C61.31476563 59.17361328 61.31476563 59.17361328 60.296875 58.01171875 C45.73802376 42.40139492 24.14052253 33.23583247 2.97265625 32.28125 C-19.02693957 32.46908006 -39.10833506 39.53843677 -55.6875 54.3125 Z M-128.765625 180.17578125 C-137.42064814 189.56459983 -139.18287734 199.60706157 -138.9609375 211.97265625 C-138.48766445 222.78999134 -133.30180995 230.95290354 -125.62109375 238.28515625 C-116.63279266 245.85848329 -107.1476225 248.21077154 -95.55859375 247.69140625 C-83.92427586 246.55262841 -75.31344156 240.89071408 -67.875 232.0625 C-60.62514199 222.0138596 -59.32266701 211.37798203 -60.6875 199.3125 C-62.71803425 189.41214367 -68.12264842 181.50445531 -76.4375 175.8125 C-78.90576075 174.25904918 -80.90283207 173.24072264 -83.6875 172.3125 C-83.6968457 173.55338379 -83.70619141 174.79426758 -83.71582031 176.07275391 C-83.75579283 180.69127866 -83.82157207 185.30914238 -83.89501953 189.92724609 C-83.92318703 191.92325325 -83.94442252 193.91937106 -83.95849609 195.91552734 C-83.97998403 198.79061364 -84.02666426 201.66437529 -84.078125 204.5390625 C-84.07996796 205.87065903 -84.07996796 205.87065903 -84.08184814 207.22915649 C-84.21093432 212.73087772 -85.01408178 215.95326374 -88.6875 220.3125 C-93.91009857 224.36880398 -99.34090142 224.08647544 -105.6875 223.3125 C-110.27628492 221.13886504 -112.55998971 218.87736679 -114.6875 214.3125 C-115.15099853 211.08969442 -115.17594405 207.88899612 -115.19921875 204.63671875 C-115.21716995 203.7115596 -115.23512115 202.78640045 -115.25361633 201.83320618 C-115.30764079 198.88884997 -115.34158991 195.94465516 -115.375 193 C-115.40818001 190.99932654 -115.4426703 188.99867435 -115.47851562 186.99804688 C-115.56336284 182.10298116 -115.63021166 177.20796267 -115.6875 172.3125 C-119.98500999 172.3125 -125.72819775 177.45237373 -128.765625 180.17578125 Z M71.234375 180.17578125 C62.57935186 189.56459983 60.81712266 199.60706157 61.0390625 211.97265625 C61.51233555 222.78999134 66.69819005 230.95290354 74.37890625 238.28515625 C83.36720734 245.85848329 92.8523775 248.21077154 104.44140625 247.69140625 C116.07572414 246.55262841 124.68655844 240.89071408 132.125 232.0625 C139.37485801 222.0138596 140.67733299 211.37798203 139.3125 199.3125 C137.28196575 189.41214367 131.87735158 181.50445531 123.5625 175.8125 C121.09423925 174.25904918 119.09716793 173.24072264 116.3125 172.3125 C116.3031543 173.55338379 116.29380859 174.79426758 116.28417969 176.07275391 C116.24420717 180.69127866 116.17842793 185.30914238 116.10498047 189.92724609 C116.07681297 191.92325325 116.05557748 193.91937106 116.04150391 195.91552734 C116.02001597 198.79061364 115.97333574 201.66437529 115.921875 204.5390625 C115.92003204 205.87065903 115.92003204 205.87065903 115.91815186 207.22915649 C115.78906568 212.73087772 114.98591822 215.95326374 111.3125 220.3125 C106.08990143 224.36880398 100.65909858 224.08647544 94.3125 223.3125 C89.72371508 221.13886504 87.44001029 218.87736679 85.3125 214.3125 C84.84900147 211.08969442 84.82405595 207.88899612 84.80078125 204.63671875 C84.78283005 203.7115596 84.76487885 202.78640045 84.74638367 201.83320618 C84.69235921 198.88884997 84.65841009 195.94465516 84.625 193 C84.59181999 190.99932654 84.5573297 188.99867435 84.52148438 186.99804688 C84.43663716 182.10298116 84.36978834 177.20796267 84.3125 172.3125 C80.01499001 172.3125 74.27180225 177.45237373 71.234375 180.17578125 Z " fill="#000000" transform="translate(255.6875,-0.3125)"/>
</svg>
