<?xml version="1.0" encoding="UTF-8"?>
<svg version="1.1" xmlns="http://www.w3.org/2000/svg" width="512" height="512">
<path d="M0 0 C2.4326433 1.91056917 4.75364666 3.90013189 7.06640625 5.953125 C8.071875 6.74589844 8.071875 6.74589844 9.09765625 7.5546875 C25.21366987 20.53703181 34.7771279 40.83744827 38.06640625 60.953125 C38.77198803 68.67042049 38.54472377 76.40296306 38.37890625 84.140625 C38.22421875 94.4428125 38.22421875 94.4428125 38.06640625 104.953125 C57.86640625 104.953125 77.66640625 104.953125 98.06640625 104.953125 C98.06640625 145.213125 98.06640625 185.473125 98.06640625 226.953125 C147.56640625 226.953125 197.06640625 226.953125 248.06640625 226.953125 C248.06640625 316.053125 248.06640625 405.153125 248.06640625 496.953125 C99.56640625 496.953125 -48.93359375 496.953125 -201.93359375 496.953125 C-201.93359375 367.593125 -201.93359375 238.233125 -201.93359375 104.953125 C-182.13359375 104.953125 -162.33359375 104.953125 -141.93359375 104.953125 C-142.12969055 91.32796052 -142.12969055 91.32796052 -142.3840332 77.70385742 C-142.67250702 54.47508671 -136.53672435 33.53052927 -120.93359375 15.953125 C-120.40507813 15.2828125 -119.8765625 14.6125 -119.33203125 13.921875 C-91.27616577 -20.90609594 -35.55651168 -24.80907073 0 0 Z M-95.12109375 33.640625 C-114.47991746 53.99322816 -111.93359375 77.88455458 -111.93359375 104.953125 C-72.33359375 104.953125 -32.73359375 104.953125 8.06640625 104.953125 C8.94284415 64.36503722 8.94284415 64.36503722 -10.62109375 31.765625 C-35.57875465 8.02659989 -70.82987774 11.239776 -95.12109375 33.640625 Z M-171.93359375 134.953125 C-171.93359375 244.513125 -171.93359375 354.073125 -171.93359375 466.953125 C-142.23359375 466.953125 -112.53359375 466.953125 -81.93359375 466.953125 C-81.93359375 387.753125 -81.93359375 308.553125 -81.93359375 226.953125 C-32.43359375 226.953125 17.06640625 226.953125 68.06640625 226.953125 C68.06640625 196.593125 68.06640625 166.233125 68.06640625 134.953125 C-11.13359375 134.953125 -90.33359375 134.953125 -171.93359375 134.953125 Z M-51.93359375 256.953125 C-51.93359375 326.253125 -51.93359375 395.553125 -51.93359375 466.953125 C37.16640625 466.953125 126.26640625 466.953125 218.06640625 466.953125 C218.06640625 397.653125 218.06640625 328.353125 218.06640625 256.953125 C128.96640625 256.953125 39.86640625 256.953125 -51.93359375 256.953125 Z " fill="#000000" transform="translate(232.93359375,15.046875)"/>
<path d="M0 0 C9.9 0 19.8 0 30 0 C30.75 11.3125 30.75 11.3125 30.95605469 14.8059082 C31.94998087 28.02265281 36.54829382 39.04111553 46.1875 48.25 C56.84241536 57.29764847 68.36228844 58.73426442 81.81640625 58.17919922 C92.15179863 57.33101295 101.26154928 51.12751384 108.25 43.8125 C118.87230237 31.13768104 119.11635687 15.75830246 120 0 C129.9 0 139.8 0 150 0 C150.47522449 23.88003044 149.60909979 46.07867442 132.5625 64.5 C130.7419779 66.37286443 128.88004217 68.1851616 127 70 C126.29359375 70.73734375 125.5871875 71.4746875 124.859375 72.234375 C111.71588023 85.17720573 92.96146915 90.32216367 75 90.5 C55.08131439 90.30278529 36.78423205 83.9783047 22.609375 69.703125 C21.74828125 68.81109375 20.8871875 67.9190625 20 67 C19.26265625 66.29359375 18.5253125 65.5871875 17.765625 64.859375 C11.31715752 58.31093128 7.59186937 50.347156 4 42 C3.54109375 40.95714844 3.0821875 39.91429687 2.609375 38.83984375 C-1.81365572 26.52076875 -0.24445742 12.83401457 0 0 Z " fill="#000000" transform="translate(241,302)"/>
</svg>
